<svg width="234" height="192" viewBox="0 0 234 192" fill="none" xmlns="http://www.w3.org/2000/svg">
<path d="M14.3914 184.495C9.38891 176.989 -0.0157835 159.574 2.38541 149.966C4.78661 140.357 11.3899 126.612 14.3914 120.941C19.7274 110.265 31.6 88.713 36.4024 87.9123C42.4054 86.9114 49.9092 80.9063 50.9097 76.4024C51.9102 71.8985 37.9032 56.3852 40.9047 42.8736C43.9062 29.362 51.4099 9.84524 57.9131 6.34223C64.4164 2.83922 84.9266 0.337073 89.4289 3.33965C93.0307 5.74172 105.604 6.34223 111.44 6.34223L135.452 3.33965C148.125 2.00517 176.973 1.33793 190.98 9.34481C208.488 19.3534 215.492 20.3543 222.495 27.8607C227.382 33.098 230.34 47.0898 231.57 55.8938C231.892 58.2016 231.69 60.5414 231.372 62.8498C230.446 69.5651 230.174 79.5606 228.498 81.9071C226.659 84.4835 224.819 89.5129 222.98 92.2517C222.713 92.6491 222.721 93.1782 223.01 93.5598C225.7 97.1105 228.498 103.67 228.498 105.928C228.498 108.93 228.998 119.94 228.498 127.947C227.998 135.954 230.999 169.482 228.498 175.988C226.497 181.192 222.495 190 216.492 190" stroke="#FFAFCC" stroke-width="3"/>
</svg>
