<svg width="27" height="22" viewBox="0 0 27 22" fill="none" xmlns="http://www.w3.org/2000/svg">
<path d="M14.4857 3.10622C15.8305 2.34412 17.0785 1.61424 18.3372 0.916541C20.9192 -0.521796 23.1679 0.637458 25.2012 2.05433C27.3636 3.5678 27.6001 6.97044 25.7819 9.70757C24.2973 11.9509 22.5867 14.044 20.973 16.1908C20.2307 17.1676 19.3917 18.08 18.7354 19.1104C16.5084 22.6311 13.0443 22.9424 10.1287 20.0013C8.32134 18.1873 6.1588 16.7275 4.36215 14.9135C2.8775 13.4215 1.52205 11.7363 0.435458 9.94372C-0.177768 7.5286 -0.220959 6.13318 0.811843 4.3943C2.10285 3.0311 3.3509 1.48543 4.93238 0.57305C6.77205 -0.489602 8.89137 0.0900316 10.7633 0.980941C12.0651 1.6035 13.2807 2.40852 14.4964 3.10622H14.4857Z" fill="white"/>
</svg>
