<svg width="18" height="22" viewBox="0 0 18 22" fill="none" xmlns="http://www.w3.org/2000/svg">
<path d="M1.7051 3.10394C1.89545 3.64894 3.18347 6.89874 3.70594 8.11791C4.05426 8.93339 4.69815 9.35326 5.44743 9.70447C6.59362 10.2374 7.79657 10.4795 9.15337 10.4634C9.32348 10.4634 9.48547 10.3544 9.54622 10.197C9.87428 9.36939 10.0403 8.44894 10.2428 7.50832C10.2955 7.25803 10.5142 7.06829 10.7734 7.05618C11.0853 7.04407 11.3809 7.15309 11.7252 7.3832C12.8065 8.10179 16.8649 13.031 17.1524 13.2812C18.1042 14.1209 18.2743 15.1504 17.5615 16.1637C17.282 16.5633 15.4837 18.8846 15.2609 19.0905C14.544 19.7606 13.815 20.4187 13.0577 21.0444C12.6567 21.3754 12.2152 21.6782 11.7495 21.9002C11.2351 22.1465 10.8463 21.9244 10.7491 21.3714C10.6722 20.9233 10.6964 20.459 10.6195 20.0069C10.5101 19.3407 10.3563 18.7715 9.4774 18.6101C8.27856 18.388 7.11203 17.9924 5.94559 17.6291C3.92456 17.0074 2.3936 15.8003 1.48637 13.8545C0.996304 12.8049 0.429375 11.4202 0.364573 9.8498C0.324071 8.87285 0.00405015 4.4846 0 3.50764C0 3.14028 0.0121979 2.23601 0.0486492 1.86865C0.097251 1.42054 0.0323735 0.156949 0.174129 0.0398759C0.299683 -0.0650861 0.534627 0.0560179 0.61563 0.185202C0.680433 0.290164 1.28793 1.9857 1.7051 3.10394ZM10.5101 11.0488C10.4696 11.2829 10.2793 11.4565 10.0444 11.4888C9.59887 11.5453 9.16553 11.618 8.75646 11.5534C7.54952 11.3596 6.34662 11.1376 5.20853 10.6047C3.90033 9.99109 3.12675 9.65599 2.77439 8.80822C2.59213 8.36415 1.58763 5.95002 1.29197 5.51806C1.24337 5.44539 1.12594 5.4737 1.11784 5.56251C0.959889 7.26612 0.996376 8.83648 1.25558 10.423C1.612 12.603 2.64881 14.3672 4.37012 15.7075C5.76742 16.7934 9.61106 17.3303 9.78116 17.2415C10.2469 16.9912 10.5507 17.2698 10.7815 17.5685C11.0326 17.8996 11.2068 18.2952 11.3728 18.6787C11.5389 19.0622 11.6806 19.4498 11.8426 19.8939C11.9277 20.128 12.2274 20.1966 12.4097 20.023C12.592 19.8494 12.7337 19.7162 12.8998 19.5991C14.3376 18.5979 15.3501 17.181 16.5327 15.9295C17.0349 15.3966 16.9985 15.0737 16.5489 14.3753C16.3262 14.0281 16.0507 13.7132 15.7915 13.3902C15.026 12.4334 14.2161 11.509 13.5032 10.5159C12.8917 9.66406 12.1059 9.0343 11.3 8.36416C10.7127 9.17156 10.6762 10.0597 10.5061 11.0528L10.5101 11.0488Z" fill="#A2D2FF"/>
</svg>
