<svg width="250" height="21" viewBox="0 0 250 21" fill="none" xmlns="http://www.w3.org/2000/svg">
<path d="M8.24007 3.22385C7.66801 2.17873 8.1649 0.87234 9.2371 0.379548C9.59995 0.214181 9.97918 0.0852162 10.4172 0.0289916C11.509 -0.109916 12.2314 0.253872 12.8264 1.04432C13.5063 1.95053 15.1996 7.11658 14.9806 8.27415C14.9316 8.53873 14.7485 8.90254 14.5425 8.97861C14.3268 9.05799 13.964 8.90255 13.7449 8.74049C13.2121 8.34692 12.6956 7.92027 12.2314 7.45062C11.3226 6.53119 8.57351 3.81919 8.25316 3.24702C8.24989 3.2404 8.24661 3.23377 8.24007 3.22716V3.22385Z" fill="#FFC8DD"/>
<path d="M11 12.5657C11 12.9797 10.7431 13.0727 10.0703 12.9497C9.48206 12.8417 6.98708 12.5837 6.67943 12.5567C5.10402 12.4278 3.52523 12.3288 1.95319 12.1788C0.37778 12.0288 -0.305174 10.4632 0.127557 9.53935C0.763133 8.17461 1.28379 7.90765 2.94711 8.02463C5.03977 8.1716 6.84171 8.96944 8.5456 9.93225C9.21498 10.3102 11 11.9149 11 12.5627V12.5657Z" fill="#FFC8DD"/>
<path d="M9.99683 17.2106C9.99683 17.3564 9.52239 17.7024 9.23459 17.8278C6.85312 18.8554 4.46219 19.8591 2.07123 20.8527C1.23629 21.1986 0.568996 20.9375 0.278033 20.0456C0.0756234 19.4284 -0.0445818 18.7231 0.0155084 18.0788C0.107225 17.0716 0.660682 16.4036 1.66957 16.2204C2.23884 16.1187 7.82727 15.5456 9.85136 16.7867C9.8988 16.8173 10 16.9563 10 17.2106H9.99683Z" fill="#FFC8DD"/>
<path d="M235.58 14.9712C234.829 14.2917 234.876 13.5828 235.331 12.7061C235.868 11.6616 236.259 10.5333 236.698 9.43425C237.342 7.81092 238.089 6.26309 239.254 4.97533C240.1 4.04411 241.242 3.88056 242.273 4.06932C242.897 4.18257 243.755 4.8663 243.913 5.63811C243.968 6.10372 244.047 6.52319 243.964 6.94685C243.869 7.43762 243.719 7.9871 243.419 8.34365C242.067 9.92923 240.843 11.368 239.823 12.0978C239.76 12.144 239.693 12.1818 239.63 12.2237C239.088 12.5719 237.946 13.5828 237.524 13.9184C237.053 14.2917 236.559 14.6398 236.058 14.9628C235.939 15.0383 235.746 14.9754 235.588 14.9754L235.58 14.9712Z" fill="#FFC8DD"/>
<path d="M239.652 18.8825C239.405 18.84 239.211 18.6583 239.166 18.4226C239.13 18.2487 239.102 18.1096 239.057 17.9782C238.899 17.5221 239.077 17.24 239.486 17.0004C241.377 15.8796 243.284 14.7665 245.486 14.3027C246.384 14.1133 247.307 13.8389 248.251 14.121C250.016 14.6428 250.55 16.382 249.368 17.7501C248.384 18.8864 246.907 18.9443 246.749 18.9057C245.142 18.9096 243.534 18.898 241.927 18.9096C241.478 18.9096 241.029 19.0139 240.579 18.9984C240.263 18.9868 239.952 18.9366 239.656 18.8864L239.652 18.8825Z" fill="#FFC8DD"/>
<path d="M229.004 8.49041C229.082 6.79872 229.148 5.10703 229.247 3.41534C229.345 1.72366 229.892 0.926823 231.171 0.22373C231.985 -0.227954 232.811 0.0618433 233.198 0.581706C233.707 1.26349 233.905 2.04324 233.966 2.87843C234.094 4.63829 233.884 6.30016 232.922 7.83844C232.359 8.73754 231.985 9.76024 231.524 10.7275C231.45 10.8852 231.376 11.0428 231.278 11.1834C230.953 11.6522 230.57 12.1209 229.954 11.9718C229.345 11.8269 229.128 11.2303 229.066 10.6721C228.988 9.95625 229.045 9.22333 229.045 8.49467C229.029 8.49467 229.012 8.49467 229 8.49467L229.004 8.49041Z" fill="#FFC8DD"/>
</svg>
