<svg width="18" height="16" viewBox="0 0 18 16" fill="none" xmlns="http://www.w3.org/2000/svg">
<path d="M12.7824 14.8274C12.6972 15.185 11.1255 16 10.4293 16C10.2089 16 10.0033 15.6819 9.76239 15.5849C7.87048 14.8244 6.28413 13.5397 4.65661 12.346C3.58139 11.5552 2.57373 10.6402 1.64247 9.67059C0.543745 8.53136 0.111877 7.04065 0.00905551 5.46209C-0.0849527 3.99259 0.558405 2.84729 1.6865 2.02316C2.88511 1.14753 4.20709 0.505202 5.64659 0.159796C7.47682 -0.279537 8.91342 0.0991931 9.50979 2.40796C9.55679 2.59278 9.69193 2.75336 9.72718 2.82002C10.6731 2.71095 11.5163 2.61097 12.3623 2.51099C14.551 2.25345 17.286 4.77733 17.6385 7.04974C17.8207 8.21321 18.2379 9.3373 17.8207 10.5129C17.2537 12.1187 16.1638 13.2125 14.6479 13.8851C14.0046 14.17 13.3876 14.5154 12.7795 14.8214L12.7824 14.8274ZM9.04854 3.19271C9.12198 3.04424 8.94279 2.74427 8.83997 2.53218C8.40812 1.63836 7.11843 1.44446 6.11078 1.78684C5.74063 1.9141 5.39104 2.11709 5.01501 2.21405C3.69008 2.55642 2.59719 3.25937 1.59836 4.21681C0.49376 5.27121 0.611287 7.26486 1.83633 8.16473C2.09192 8.35259 2.32987 8.56771 2.56195 8.78586C4.77702 10.8371 7.3035 12.4278 9.84172 14.0033C10.3764 14.3336 10.8376 14.2578 11.2225 13.8155C11.6279 13.3519 12.1538 13.1246 12.6561 12.8217C13.84 12.1036 15.0416 11.3794 16.105 10.4917C17.2243 9.55545 17.4652 7.45877 16.6074 6.51648C15.8348 5.66508 14.9593 4.92276 13.8018 4.5622C12.6855 4.21377 11.6161 4.58947 10.5262 4.56524C10.3529 4.56221 10.0591 4.73491 9.4892 4.75612C8.7107 5.12576 8.67837 5.7681 8.00562 6.06503C7.95862 5.21666 8.68132 3.94412 9.04854 3.19271Z" fill="#FFC8DD"/>
</svg>
