<svg width="12" height="10" viewBox="0 0 12 10" fill="none" xmlns="http://www.w3.org/2000/svg">
<path d="M6.43807 1.41192C7.03576 1.06551 7.59045 0.733746 8.14988 0.41661C9.29744 -0.23718 10.2968 0.289754 11.2005 0.933785C12.1616 1.62173 12.2667 3.16838 11.4586 4.41253C10.7988 5.43225 10.0385 6.38365 9.32133 7.35945C8.9914 7.80344 8.61853 8.21816 8.32685 8.68655C7.33709 10.2869 5.79745 10.4284 4.50166 9.09151C3.69837 8.26696 2.73724 7.6034 1.93873 6.77885C1.27889 6.10066 0.676467 5.33467 0.193537 4.51987C-0.0790079 3.42209 -0.0982039 2.78781 0.360819 1.99741C0.934598 1.37777 1.48929 0.675194 2.19217 0.260477C3.0098 -0.222546 3.95172 0.0409235 4.7837 0.445882C5.36226 0.728866 5.90255 1.09478 6.44286 1.41192H6.43807Z" fill="#FFC8DD"/>
</svg>
