<svg width="7" height="6" viewBox="0 0 7 6" fill="none" xmlns="http://www.w3.org/2000/svg">
<path d="M4.44396 5.91615C4.28154 6.02795 4.0618 6.02795 3.90256 5.91615C3.02675 5.31488 2.27198 4.81029 1.54266 4.27247C1.1796 4.00356 0.854712 3.67724 0.548973 3.34789C-0.237669 2.49886 -0.158024 1.80694 0.654096 0.954886C1.32927 0.241817 2.07448 -0.181192 3.09043 0.0756339C3.39298 0.151171 3.67323 0.311303 3.95987 0.456334C4.08726 0.519785 4.23695 0.525834 4.36753 0.471447C4.51084 0.411018 4.651 0.350583 4.79432 0.296196C5.48223 0.0303058 6.06506 0.154192 6.5587 0.698058C7.06508 1.25703 7.08737 1.84622 6.86761 2.52908C6.55551 3.49897 6.409 4.07608 5.0268 5.41157C4.88667 5.61401 4.66053 5.7681 4.44715 5.91615H4.44396Z" fill="#FFC8DD"/>
</svg>
