<svg width="10" height="9" viewBox="0 0 10 9" fill="none" xmlns="http://www.w3.org/2000/svg">
<path d="M6.25898 2.1652C6.7753 1.90976 7.14531 1.71108 7.53154 1.54483C8.77558 1.00151 9.54804 1.45564 9.88955 2.74097C10.1782 3.82357 9.87733 4.71966 9.26344 5.5387C8.53165 6.51588 7.75922 7.46873 6.93799 8.37292C6.17368 9.21224 5.3443 9.17981 4.48648 8.44996C3.81567 7.87825 3.08789 7.37547 2.39676 6.82403C1.87231 6.40234 1.30313 6.0131 0.864058 5.51438C-0.262086 4.24526 -0.274195 2.79368 0.750311 1.4313C1.55935 0.352757 2.8115 0.235172 3.98643 0C4.52714 0.0892031 4.61651 0.182454 5.03119 0.563595C5.36863 1.09476 5.79145 1.56917 6.25491 2.16926L6.25898 2.1652Z" fill="#FFC8DD"/>
</svg>
