<svg width="12" height="12" viewBox="0 0 12 12" fill="none" xmlns="http://www.w3.org/2000/svg">
<path d="M8.14219 0.200459C8.52748 0.0462672 8.93582 -0.0189779 9.34986 0.00474387C9.53963 0.0166048 9.71781 0.0343932 9.83282 0.0759064C12.0755 0.9121 12.5528 2.86321 11.3797 5.05155C10.4538 6.77138 9.30377 8.36076 8.25718 10.0035C8.02716 10.3593 7.80293 10.7211 7.58441 11.0888C7.02086 12.0199 6.26175 12.3104 5.53143 11.6166C3.86953 10.045 2.20759 8.4497 0.746953 6.68836C-0.397402 5.30656 -0.155785 3.53337 0.988571 2.11007C1.63838 1.30352 3.76601 0.698616 4.80686 1.25608C5.97997 1.88471 6.22722 2.27018 6.94028 1.04851C7.08405 0.805361 7.88342 0.301277 8.14219 0.200459Z" fill="#FFC8DD"/>
</svg>
