<svg width="264" height="175" viewBox="0 0 264 175" fill="none" xmlns="http://www.w3.org/2000/svg">
<path d="M248.64 112.609C249.518 112.183 250.147 111.852 250.804 111.575C252.918 110.669 254.232 111.426 254.812 113.568C255.303 115.373 254.791 116.866 253.748 118.231C252.504 119.86 251.191 121.448 249.795 122.955C248.495 124.354 247.085 124.3 245.627 123.083C244.487 122.13 243.249 121.292 242.074 120.373C241.183 119.671 240.215 119.022 239.469 118.191C237.554 116.075 237.534 113.656 239.276 111.386C240.651 109.588 242.78 109.392 244.777 109C245.696 109.149 245.848 109.304 246.553 109.939C247.127 110.825 247.845 111.615 248.633 112.615L248.64 112.609Z" fill="#FFC8DD"/>
<path d="M50.6571 68.9767C51.5536 68.4917 52.3857 68.0272 53.2248 67.5833C54.9462 66.6679 56.4452 67.4057 57.8008 68.3073C59.2424 69.2704 59.4001 71.4357 58.188 73.1775C57.1982 74.6051 56.0578 75.9371 54.982 77.3032C54.4871 77.9248 53.9278 78.5054 53.4903 79.1612C52.0056 81.4016 49.6962 81.5997 47.7525 79.7281C46.5476 78.5737 45.1059 77.6448 43.9081 76.4904C42.9183 75.5409 42.0147 74.4685 41.2903 73.3278C40.8815 71.7909 40.8527 70.9029 41.5412 69.7964C42.4019 68.9289 43.2339 67.9453 44.2883 67.3647C45.5147 66.6884 46.9276 67.0573 48.1755 67.6242C49.0434 68.0204 49.8538 68.5327 50.6643 68.9767H50.6571Z" fill="#FFC8DD"/>
<path d="M251.486 2.96503C252.83 2.23757 254.079 1.54087 255.337 0.87488C257.919 -0.498078 260.168 0.608483 262.201 1.96095C264.364 3.40563 264.6 6.6536 262.782 9.26632C261.297 11.4077 259.587 13.4057 257.973 15.4548C257.231 16.3872 256.392 17.2581 255.735 18.2417C253.508 21.6024 250.044 21.8996 247.129 19.0922C245.321 17.3606 243.159 15.9671 241.362 14.2356C239.877 12.8114 238.522 11.2028 237.435 9.49173C236.822 7.18639 236.779 5.8544 237.812 4.19456C239.103 2.89332 240.351 1.41791 241.932 0.547002C243.772 -0.467347 245.891 0.0859393 247.763 0.936353C249.065 1.53062 250.281 2.29904 251.496 2.96503H251.486Z" fill="#FFC8DD"/>
<path d="M47.7852 165.167C48.1062 165.039 48.4465 164.984 48.7916 165.004C48.9497 165.014 49.0982 165.029 49.194 165.063C51.0629 165.76 51.4607 167.386 50.4831 169.21C49.7115 170.643 48.7531 171.967 47.881 173.336C47.6893 173.633 47.5024 173.934 47.3203 174.241C46.8507 175.017 46.2181 175.259 45.6095 174.68C44.2246 173.371 42.8397 172.041 41.6225 170.574C40.6688 169.422 40.8702 167.944 41.8238 166.758C42.3653 166.086 44.1383 165.582 45.0057 166.047C45.9833 166.571 46.1893 166.892 46.7836 165.874C46.9034 165.671 47.5695 165.251 47.7852 165.167Z" fill="#FFC8DD"/>
<path d="M223.623 80.6076C223.519 81.0321 221.598 82 220.747 82C220.478 82 220.226 81.6222 219.932 81.5071C217.619 80.604 215.681 79.0784 213.691 77.6608C212.377 76.7218 211.146 75.6352 210.007 74.4838C208.665 73.131 208.137 71.3608 208.011 69.4862C207.896 67.7412 208.682 66.3812 210.061 65.4025C211.526 64.3627 213.142 63.5999 214.901 63.1898C217.138 62.6681 218.894 63.1178 219.623 65.8595C219.681 66.0789 219.846 66.2696 219.889 66.3488C221.045 66.2192 222.075 66.1005 223.11 65.9818C225.785 65.676 229.127 68.6731 229.558 71.3716C229.781 72.7532 230.291 74.088 229.781 75.4841C229.088 77.391 227.756 78.6899 225.903 79.4886C225.117 79.8268 224.363 80.237 223.619 80.6004L223.623 80.6076ZM219.059 66.7913C219.149 66.615 218.93 66.2588 218.804 66.007C218.277 64.9456 216.7 64.7153 215.469 65.1219C215.016 65.273 214.589 65.514 214.129 65.6292C212.51 66.0358 211.174 66.8705 209.954 68.0075C208.603 69.2596 208.747 71.627 210.244 72.6956C210.557 72.9187 210.848 73.1741 211.131 73.4332C213.839 75.869 216.926 77.758 220.029 79.6289C220.682 80.0211 221.246 79.9312 221.716 79.4059C222.212 78.8554 222.855 78.5855 223.469 78.2257C224.916 77.373 226.384 76.5131 227.684 75.4589C229.052 74.3471 229.346 71.8573 228.298 70.7383C227.354 69.7273 226.284 68.8458 224.869 68.4176C223.504 68.0038 222.198 68.45 220.865 68.4212C220.654 68.4176 220.294 68.6227 219.598 68.6479C218.646 69.0868 218.607 69.8496 217.785 70.2022C217.727 69.1948 218.611 67.6836 219.059 66.7913Z" fill="#FFC8DD"/>
<path d="M13.09 5.26285C13.7651 4.627 14.3165 3.9661 14.9821 3.49046C19.0941 0.531479 23.9716 1.20238 27.1091 5.70844C28.1597 7.22048 28.1122 8.96283 27.8174 10.7252C27.304 13.7893 25.7163 16.3277 24.1522 18.8511C23.2205 20.3582 22.0701 21.725 20.9386 23.0818C19.9546 24.2534 19.9165 24.1733 18.4 23.5675C17.1022 23.0468 15.7711 22.6262 14.4543 22.1506C11.6163 21.1292 9.26796 19.2667 7.15726 17.1138C5.14638 15.066 3.20682 12.9081 1.4574 10.61C0.706296 9.62372 0.354451 8.2018 0.0882356 6.91507C-0.372887 4.69208 1.05808 3.2952 2.41293 1.93838C2.63636 1.71307 2.96911 1.60793 3.22582 1.40766C5.65503 -0.504911 6.91 -0.484887 9.24414 1.56788C9.92869 2.16868 10.5799 2.81956 11.2407 3.45041C11.8397 4.02618 12.434 4.61698 13.09 5.26285ZM19.0323 22.0204C19.1132 21.9904 19.27 21.9854 19.3461 21.8952C20.7294 20.3281 22.3553 18.9212 23.4106 17.1388C24.6799 14.9909 26.2201 12.9282 26.2106 10.0543C26.2058 8.69247 26.1773 7.53591 25.3977 6.49451C23.1681 3.50548 19.3699 2.86462 16.2941 4.90237C15.2578 5.58829 14.6588 6.47448 14.868 7.79626C14.9583 8.37204 15.0818 8.94281 15.1627 9.51858C15.3005 10.4548 15.3006 10.7302 14.6588 10.7753C14.2405 10.8053 13.8506 10.5349 13.7175 10.1194C12.7192 6.99017 10.7369 4.62199 8.20308 2.71943C7.02412 1.83824 5.51239 1.30252 3.7915 3.0699C2.07061 4.83728 1.89468 7.50587 3.16396 9.54361C4.69469 11.9969 6.82924 13.8544 8.81634 15.8521C10.2045 17.249 11.7685 18.3705 13.5654 19.1766C15.3671 19.9827 17.088 20.999 19.0228 22.0154L19.0323 22.0204Z" fill="#FFC8DD"/>
<path d="M216.628 174.992C216.297 175.06 216.042 174.679 216.198 174.358C216.283 174.183 216.363 174.024 216.448 173.865C216.739 173.319 216.735 173.147 216.2 172.899C214.974 172.333 213.721 171.837 212.49 171.276C211.897 171.008 211.329 170.671 210.763 170.337C210.365 170.102 209.991 169.818 209.602 169.562C208.118 168.591 207.477 165.953 208.495 164.382C209.197 163.302 210.26 163.159 211.334 163.13C212.215 163.106 213.029 163.378 213.607 164.056C213.716 164.187 213.891 164.228 214.044 164.166C214.904 163.816 215.69 163.477 216.492 163.19C217.98 162.66 219.486 163.263 220.261 164.695C220.96 165.99 221.23 167.367 220.778 168.829C220.091 171.052 219.059 173.043 217.354 174.569C217.143 174.76 216.919 174.922 216.625 174.984L216.628 174.992ZM214.5 165.906C214.107 165.658 213.653 165.157 213.199 164.881C212.038 164.174 210.863 163.834 209.597 164.596C208.407 165.314 208.172 166.786 209.153 167.832C209.823 168.547 210.559 169.202 211.453 169.588C213.449 170.449 215.447 171.302 217.551 172.2C217.706 172.265 217.883 172.224 217.997 172.093C218.155 171.913 218.299 171.751 218.42 171.569C218.83 170.94 219.212 170.287 219.617 169.656C220.198 168.75 220.457 167.743 220.309 166.668C220.159 165.572 219.673 164.56 218.614 164.312C217.276 163.999 216.276 164.114 215.166 164.956C215.044 165.05 214.751 165.139 214.721 165.57C214.721 165.57 214.726 166.045 214.503 165.904L214.5 165.906Z" fill="#FFC8DD"/>
<path d="M17.083 107.186C17.0559 107.203 17.2424 107.146 17.3611 107.024C18.4631 105.876 19.8464 106.091 21.2027 106.256C21.4909 106.29 22.888 106.927 23.1253 107.115C24.563 108.281 24.3086 108.581 24.78 110.309C24.8613 110.605 25.058 112.118 24.9834 112.408C25.0207 114.372 24.0001 115.386 22.7829 116.673C21.8504 117.656 20.9281 118.643 20.0363 119.661C19.5006 120.27 19.4362 120.237 18.9005 120.927C18.7072 121.18 17.8018 122.144 17.6425 121.982C17.1949 121.527 17.2322 121.089 17.0661 120.877C16.4523 120.442 16.2218 120.217 15.6386 119.806C14.2687 118.835 12.831 117.959 11.451 117.003C9.16904 115.419 7.90094 113.314 8.00605 110.457C8.04335 109.386 8.379 108.54 9.15887 107.816C10.6372 106.445 12.4445 105.892 14.3772 106.017C15.2487 106.074 16.0828 106.728 17.083 107.179V107.186ZM17.6526 108.278C17.4051 108.699 16.7914 108.732 16.4829 108.352C16.1743 107.971 15.7878 107.745 14.5298 107.536C13.1125 107.304 11.8817 107.799 10.5762 108.257C8.35533 109.039 8.44683 110.966 9.09107 112.475C9.16227 112.64 9.27419 112.788 9.36574 112.943C10.227 114.378 11.4951 115.372 12.8853 116.268C14.3263 117.195 15.7166 118.199 17.117 119.186C17.5815 119.512 17.9985 119.893 18.5241 119.287C19.9719 117.606 21.5384 116.016 22.854 114.237C24.8444 111.549 23.3762 108.156 20.0669 107.523C18.2969 107.183 18.0256 107.634 17.6628 108.264C17.6628 108.267 17.656 108.274 17.656 108.278H17.6526Z" fill="#FFC8DD"/>
</svg>
