<svg width="372" height="108" viewBox="0 0 372 108" fill="none" xmlns="http://www.w3.org/2000/svg">
<path d="M360.311 57.859C378.801 99.4757 275.118 108 187.904 108C100.689 108 0.00435043 87.5564 0.00435043 59.8643C0.00435043 32.1723 -3.49384 22.7604 187.904 7.71807C332.326 -11.3358 401.289 4.70928 360.311 57.859Z" fill="#CDB4DB"/>
<path d="M309.64 16.6087C310.518 16.1829 311.147 15.8518 311.804 15.5747C313.918 14.6692 315.232 15.4261 315.812 17.5683C316.303 19.3726 315.791 20.8661 314.748 22.2312C313.504 23.8598 312.191 25.4479 310.795 26.9549C309.495 28.3537 308.085 28.2997 306.627 27.0833C305.487 26.1304 304.249 25.2924 303.074 24.3734C302.183 23.6706 301.215 23.0218 300.469 22.1906C298.554 20.0754 298.534 17.6561 300.276 15.3855C301.651 13.5879 303.78 13.392 305.777 13C306.696 13.1487 306.848 13.3041 307.553 13.9393C308.127 14.8246 308.845 15.6153 309.633 16.6154L309.64 16.6087Z" fill="#FFC8DD"/>
<path d="M78.083 73.1861C78.0559 73.2029 78.2424 73.1456 78.3611 73.0244C79.4631 71.8756 80.8464 72.0912 82.2027 72.2563C82.4909 72.29 83.888 72.9267 84.1253 73.1153C85.563 74.2809 85.3086 74.5808 85.78 76.3089C85.8613 76.6054 86.058 78.118 85.9834 78.4077C86.0207 80.3717 85.0001 81.3857 83.7829 82.6726C82.8504 83.6563 81.9281 84.6434 81.0363 85.6607C80.5006 86.2705 80.4362 86.2368 79.9005 86.9274C79.7072 87.18 78.8018 88.1435 78.6425 87.9818C78.1949 87.527 78.2322 87.0891 78.0661 86.8769C77.4523 86.4423 77.2218 86.2166 76.6386 85.8056C75.2687 84.8354 73.831 83.9595 72.451 83.0027C70.169 81.4194 68.9009 79.3139 69.0061 76.4572C69.0434 75.3859 69.379 74.5403 70.1589 73.816C71.6372 72.4449 73.4445 71.8925 75.3772 72.0171C76.2487 72.0744 77.0828 72.7279 78.083 73.1793V73.1861ZM78.6526 74.2776C78.4051 74.6987 77.7914 74.7324 77.4829 74.3517C77.1743 73.971 76.7878 73.7453 75.5298 73.5364C74.1125 73.304 72.8817 73.7992 71.5762 74.2574C69.3553 75.0389 69.4468 76.9659 70.0911 78.4751C70.1623 78.6402 70.2742 78.7884 70.3657 78.9433C71.227 80.3785 72.4951 81.3722 73.8853 82.2683C75.3263 83.1948 76.7166 84.1987 78.117 85.1857C78.5815 85.5125 78.9985 85.8932 79.5241 85.2868C80.9719 83.6058 82.5384 82.0157 83.854 80.237C85.8444 77.5487 84.3762 74.1563 81.0669 73.523C79.2969 73.1827 79.0256 73.6341 78.6628 74.2641C78.6628 74.2675 78.656 74.2742 78.656 74.2776H78.6526Z" fill="#FFC8DD"/>
</svg>
