<svg width="64" height="7" viewBox="0 0 64 7" fill="none" xmlns="http://www.w3.org/2000/svg">
<path d="M64 1.13302C63.1886 1.7107 62.783 2.15008 62.2278 2.3779C58.5552 3.88312 54.5409 4.50143 50.4306 4.46075C48.669 4.44447 46.7794 3.9075 45.1886 3.26473C42.0285 1.99546 38.9537 1.99548 35.8149 3.07761C34.2241 3.63088 32.7721 4.42821 31.1813 4.98148C28.9927 5.73816 26.7934 6.61692 24.4766 6.95051C22.9926 7.16206 21.1777 6.65762 19.6937 6.15317C18.1243 5.61617 16.7046 4.76185 15.37 3.90753C14.2917 3.21594 13.1386 2.98808 11.8041 2.93926C8.59055 2.80908 5.49448 3.22404 2.49446 4.07022C1.48022 4.35499 0.455263 4.6398 0.0495666 3.50072C-0.206663 2.78472 0.551276 2.19882 1.8431 1.99542C3.74346 1.70251 5.68661 1.49103 7.52292 1.04353C11.9535 -0.0223314 15.5087 1.42593 18.9892 3.17524C19.8966 3.63088 20.7081 4.25734 21.701 4.55838C22.5871 4.82688 23.7294 4.96523 24.6369 4.79436C26.1529 4.51773 27.6475 4.0377 29.0354 3.48443C31.16 2.63011 33.0925 1.47476 35.2811 0.742488C36.8398 0.221762 38.7295 -0.111823 40.395 0.0346308C42.5623 0.221766 44.7295 0.823803 46.7473 1.50726C49.0107 2.27207 51.1993 2.82538 53.7082 2.45924C56.8791 1.99547 60.0605 1.63747 64 1.13302Z" fill="#A2D2FF"/>
</svg>
