<svg width="247" height="202" viewBox="0 0 247 202" fill="none" xmlns="http://www.w3.org/2000/svg">
<path d="M132.517 28.5208C144.819 21.5233 156.237 14.8217 167.752 8.41551C191.372 -4.79103 211.943 5.85302 230.544 18.8625C250.327 32.7589 252.49 64.0013 235.857 89.1331C222.275 109.731 206.627 128.95 191.864 148.661C185.073 157.63 177.398 166.007 171.394 175.468C151.022 207.795 119.331 210.653 92.6592 183.649C76.1249 166.993 56.3416 153.589 39.9056 136.933C26.3238 123.233 13.924 107.76 3.98364 91.3014C-1.62625 69.1262 -2.02136 56.3138 7.42686 40.3477C19.2371 27.831 30.6545 13.6389 45.1221 5.26164C61.9518 -4.49543 81.3395 0.826654 98.4644 9.00683C110.373 14.7231 121.494 22.1146 132.616 28.5208H132.517Z" fill="#FFC8DD"/>
</svg>
