<svg width="55" height="47" viewBox="0 0 55 47" fill="none" xmlns="http://www.w3.org/2000/svg">
<path d="M10.198 5.8236C10.6283 9.15315 12.1937 11.621 13.8443 14.0595C15.4924 16.5018 18.3224 18.9094 20.5103 20.8124C20.3987 19.5817 20.4609 19.0063 20.4011 18.3778C20.207 16.3285 20.6218 14.401 21.5209 12.53C22.3662 10.7725 23.5743 9.52833 25.5388 9.07072C27.8178 8.54252 30.5834 10.2974 30.9038 12.6258C31.0489 13.6659 31.1881 14.7075 31.3428 15.8336C32.1437 16.0332 32.959 16.2263 33.7716 16.4389C37.0889 17.2958 38.1811 20.9678 37.7209 23.6462C37.4115 25.4513 34.6166 28.0851 31.9272 27.4369C29.081 26.7499 26.316 25.962 23.9183 24.2405C23.4293 23.889 22.8749 23.6221 22.0739 23.1516C22.2697 24.7878 22.5237 26.0797 23.1805 27.1888C24.0544 28.6629 25.0822 30.0252 26.4283 31.1176C29.2692 33.4155 32.2923 35.4502 35.4565 37.2691C36.4434 37.8346 37.4913 38.2913 38.4868 38.8359C39.0207 39.1265 39.5094 39.4938 40.3782 40.0618C39.6714 40.152 39.3321 40.3072 39.12 40.2058C36.4459 38.9303 33.6951 37.7799 31.1598 36.2765C28.2224 34.5368 25.6654 32.2226 23.2771 29.7745C21.997 28.465 21.1773 26.6758 20.8821 24.8896C20.538 22.822 19.679 21.3098 18.1023 20.1675C15.6646 18.3987 13.9446 15.9891 12.1745 13.5786C11.0744 12.0789 10.1237 10.5599 9.63687 8.74933C9.29793 7.48688 9.35776 7.28701 10.1945 5.82128L10.198 5.8236ZM29.4256 18.8128C29.1251 18.8234 28.8984 18.5584 28.9083 18.2568C28.9179 17.9711 28.9842 17.6373 29.4065 16.9681C29.8371 16.4796 30.1303 15.7525 30.2387 15.1065C30.5606 13.1661 29.843 11.6933 28.2312 10.6821C26.662 9.69875 24.1428 10.277 23.1546 11.9358C22.292 13.3793 21.638 14.906 21.6516 16.6196C21.6623 17.9118 21.7732 19.2057 21.6612 20.492C21.5797 21.453 22.0023 21.8674 22.785 22.2729C23.7158 22.7539 24.6415 23.2582 25.4883 23.8755C27.8621 25.6025 30.6252 26.0759 33.4526 26.1877C34.8514 26.2471 36.3049 25.3864 36.8015 23.5815C37.2167 22.0792 36.6484 20.9429 36.1239 19.7398C35.4606 18.2069 34.0596 17.3069 32.4463 17.2506C31.7563 17.2297 31.1242 17.6237 30.6747 18.1796C30.3173 18.6257 29.8192 18.7992 29.4232 18.8165L29.4256 18.8128Z" fill="#CDB4DB"/>
<path d="M33.0056 41.1931C33.4135 41.1596 33.8408 41.0443 34.2192 41.1083C35.8705 41.3929 37.4999 41.7633 39.1546 42.0502C39.9533 42.1888 40.7849 42.21 41.9386 42.3139C41.0056 40.5867 40.1466 39.247 39.5261 37.7742C38.9246 36.3472 37.5543 35.229 37.9021 33.1497C39.1707 33.362 39.3941 34.3807 39.8177 35.0857C41.0019 37.0492 42.0209 39.1383 43.1693 41.1341C43.5699 41.8295 43.8369 42.4376 43.24 43.2536C42.6473 44.0556 41.9814 44.2817 41.1012 44.0509C39.4895 43.631 37.8196 43.3897 36.2215 42.9341C35.0762 42.6079 34.0087 42.0656 32.9048 41.6164C32.9376 41.4766 32.9737 41.339 33.0064 41.1992L33.0056 41.1931Z" fill="#CDB4DB"/>
</svg>
