<svg width="16" height="13" viewBox="0 0 16 13" fill="none" xmlns="http://www.w3.org/2000/svg">
<path d="M7.48002 2.85071C7.86577 2.50629 8.18087 2.14831 8.56118 1.89067C10.9109 0.287884 13.698 0.651288 15.4909 3.09207C16.0913 3.91109 16.0641 4.85487 15.8957 5.80949C15.6023 7.46922 14.695 8.84419 13.8013 10.211C13.2689 11.0273 12.6115 11.7677 11.9649 12.5027C11.4026 13.1373 11.3809 13.0939 10.5143 12.7657C9.77271 12.4837 9.01209 12.2559 8.25962 11.9982C6.63788 11.445 5.29598 10.4361 4.08986 9.26997C2.94079 8.16077 1.83247 6.99191 0.832802 5.74711C0.403597 5.21285 0.202543 4.44264 0.0504203 3.74566C-0.213078 2.54154 0.60462 1.7849 1.37882 1.04995C1.50649 0.927915 1.69663 0.870964 1.84332 0.762485C3.23145 -0.273493 3.94857 -0.262647 5.28237 0.849266C5.67354 1.1747 6.04568 1.52726 6.42328 1.86897C6.76555 2.18085 7.10515 2.50087 7.48002 2.85071ZM10.8756 11.9277C10.9218 11.9115 11.0114 11.9087 11.0549 11.8599C11.8454 11.0111 12.7744 10.249 13.3775 9.28354C14.1028 8.1201 14.9829 7.00276 14.9775 5.44608C14.9748 4.70842 14.9585 4.08195 14.513 3.51786C13.2389 1.8988 11.0685 1.55167 9.31093 2.65545C8.71874 3.02699 8.37646 3.50701 8.49599 4.22297C8.5476 4.53485 8.61819 4.84402 8.66437 5.1559C8.74315 5.66304 8.7432 5.8122 8.37648 5.83661C8.13743 5.85288 7.91461 5.70643 7.83855 5.48133C7.26809 3.78634 6.13536 2.50358 4.68747 1.47302C4.01379 0.995714 3.14994 0.705531 2.16657 1.66286C1.1832 2.62019 1.08268 4.06568 1.80798 5.16945C2.68268 6.49833 3.90242 7.50447 5.03791 8.58656C5.83112 9.3432 6.72484 9.95069 7.75167 10.3873C8.78122 10.8239 9.76458 11.3745 10.8702 11.925L10.8756 11.9277Z" fill="#FFC8DD"/>
</svg>
