<svg width="14" height="13" viewBox="0 0 14 13" fill="none" xmlns="http://www.w3.org/2000/svg">
<path d="M7.48014 0.963684C7.4578 0.977369 7.6114 0.930839 7.70913 0.832302C8.61665 -0.101065 9.75589 0.0741126 10.8728 0.208233C11.1102 0.235604 12.2607 0.752926 12.4561 0.906206C13.6401 1.85326 13.4306 2.09686 13.8188 3.50102C13.8858 3.74189 14.0478 4.97087 13.9864 5.20626C14.0171 6.80202 13.1766 7.6259 12.1741 8.67148C11.4062 9.47073 10.6467 10.2727 9.91227 11.0993C9.47108 11.5948 9.41807 11.5674 8.97687 12.1285C8.81771 12.3338 8.07209 13.1166 7.94085 12.9852C7.57226 12.6157 7.60299 12.2599 7.46616 12.0874C6.96075 11.7344 6.77088 11.551 6.29059 11.217C5.16248 10.4287 3.97849 9.71708 2.842 8.93973C0.962741 7.65327 -0.081577 5.94255 0.00498619 3.62145C0.0357022 2.75104 0.312119 2.06402 0.954361 1.47553C2.17183 0.36151 3.6602 -0.0873808 5.25184 0.0138936C5.96948 0.0604251 6.65639 0.591431 7.48014 0.958208V0.963684ZM7.94924 1.85052C7.74539 2.19266 7.23999 2.22004 6.98589 1.91074C6.73178 1.60144 6.41345 1.41805 5.37748 1.24835C4.21028 1.05949 3.19668 1.46185 2.12162 1.8341C0.292621 2.46912 0.367979 4.03476 0.898528 5.261C0.957167 5.39512 1.04933 5.51556 1.12473 5.64147C1.83398 6.80749 2.87829 7.61495 4.02316 8.34303C5.20992 9.09575 6.35485 9.91142 7.50809 10.7134C7.89064 10.9789 8.23408 11.2882 8.66689 10.7955C9.85923 9.42968 11.1493 8.13775 12.2327 6.69253C13.8719 4.50829 12.6628 1.75198 9.93743 1.2374C8.47982 0.960947 8.2564 1.32772 7.95762 1.83957C7.95762 1.84231 7.95203 1.84778 7.95203 1.85052H7.94924Z" fill="#FFC8DD"/>
</svg>
