<svg width="12" height="11" viewBox="0 0 12 11" fill="none" xmlns="http://www.w3.org/2000/svg">
<path d="M7.61822 10.8463C7.33977 11.0512 6.96309 11.0512 6.6901 10.8463C5.18871 9.74395 3.89482 8.81887 2.64457 7.83286C2.02217 7.33985 1.46522 6.7416 0.941097 6.13781C-0.407432 4.58124 -0.270899 3.31273 1.12131 1.75062C2.27875 0.44333 3.55625 -0.332185 5.29787 0.138662C5.81654 0.277147 6.29697 0.570723 6.78834 0.836613C7.00673 0.95294 7.26334 0.964029 7.48719 0.86432C7.73287 0.753532 7.97315 0.642735 8.21883 0.543026C9.39811 0.0555606 10.3972 0.282685 11.2435 1.27977C12.1116 2.30456 12.1498 3.38474 11.7731 4.63664C11.238 6.41478 10.9869 7.47281 8.61737 9.92122C8.37715 10.2924 7.98948 10.5749 7.62368 10.8463H7.61822Z" fill="#FFC8DD"/>
</svg>
