<svg width="25" height="22" viewBox="0 0 25 22" fill="none" xmlns="http://www.w3.org/2000/svg">
<path d="M17.7534 20.3877C17.635 20.8793 15.4521 22 14.4851 22C14.1791 22 13.8935 21.5626 13.5589 21.4292C10.9312 20.3836 8.72795 18.6171 6.46751 16.9757C4.97415 15.8884 3.57463 14.6302 2.2812 13.2971C0.755201 11.7306 0.155385 9.6809 0.0125771 7.51037C-0.11799 5.48982 0.775562 3.91502 2.34237 2.78185C4.00709 1.57785 5.84319 0.694653 7.84249 0.219719C10.3845 -0.384363 12.3798 0.136391 13.208 3.31095C13.2733 3.56508 13.461 3.78588 13.51 3.87753C14.8238 3.72755 15.9948 3.59009 17.1699 3.45261C20.2097 3.09849 24.0083 6.56883 24.498 9.69339C24.7509 11.2932 25.3304 12.8388 24.751 14.4552C23.9635 16.6632 22.4497 18.1672 20.3443 19.0921C19.4508 19.4837 18.5939 19.9586 17.7493 20.3794L17.7534 20.3877ZM12.5674 4.38997C12.6694 4.18584 12.4205 3.77337 12.2777 3.48175C11.6779 2.25275 9.88671 1.98614 8.4872 2.45691C7.97309 2.63188 7.48755 2.911 6.96529 3.04431C5.12511 3.51508 3.60721 4.48163 2.21994 5.79811C0.685777 7.24791 0.84901 9.98918 2.55046 11.2265C2.90544 11.4848 3.23593 11.7806 3.55826 12.0806C6.63475 14.901 10.1437 17.0882 13.6691 19.2546C14.4117 19.7087 15.0522 19.6045 15.5867 18.9963C16.1498 18.3589 16.8802 18.0464 17.5779 17.6298C19.2223 16.6424 20.8911 15.6467 22.3681 14.4261C23.9227 13.1387 24.2572 10.2558 23.0658 8.96016C21.9927 7.78949 20.7768 6.76879 19.1692 6.27303C17.6187 5.79393 16.1335 6.31053 14.6198 6.2772C14.379 6.27303 13.971 6.5105 13.1794 6.53966C12.0982 7.04793 12.0533 7.93114 11.1189 8.33942C11.0536 7.17291 12.0574 5.42316 12.5674 4.38997Z" fill="#FFC8DD"/>
</svg>
