<svg width="28" height="23" viewBox="0 0 28 23" fill="none" xmlns="http://www.w3.org/2000/svg">
<path d="M13.09 5.04357C13.7651 4.4342 14.3165 3.80085 14.9821 3.34503C19.0941 0.509334 23.9716 1.15228 27.1091 5.47059C28.1597 6.91963 28.1122 8.58938 27.8174 10.2783C27.304 13.2148 25.7163 15.6474 24.1522 18.0657C23.2205 19.5099 22.0701 20.8198 20.9386 22.1201C19.9546 23.2429 19.9165 23.1661 18.4 22.5855C17.1022 22.0865 15.7711 21.6835 14.4543 21.2276C11.6163 20.2488 9.26796 18.4639 7.15726 16.4007C5.14638 14.4383 3.20682 12.3703 1.4574 10.168C0.706296 9.22273 0.354451 7.86006 0.0882356 6.62694C-0.372887 4.49657 1.05808 3.1579 2.41293 1.85761C2.63636 1.6417 2.96911 1.54094 3.22582 1.34901C5.65503 -0.483873 6.91001 -0.464684 9.24414 1.50255C9.92869 2.07832 10.5799 2.70208 11.2407 3.30664C11.8397 3.85842 12.434 4.42461 13.09 5.04357ZM19.0323 21.1029C19.1132 21.0741 19.27 21.0693 19.3461 20.9829C20.7294 19.4811 22.3553 18.1329 23.4106 16.4247C24.6799 14.3663 26.2201 12.3895 26.2106 9.63538C26.2058 8.33029 26.1773 7.22191 25.3977 6.2239C23.1681 3.35942 19.3699 2.74526 16.2941 4.6981C15.2578 5.35544 14.6588 6.20471 14.868 7.47142C14.9583 8.0232 15.0818 8.57019 15.1627 9.12197C15.3005 10.0192 15.3006 10.2831 14.6588 10.3263C14.2405 10.3551 13.8506 10.096 13.7175 9.69774C12.7192 6.69891 10.7369 4.42941 8.20308 2.60612C7.02413 1.76165 5.51239 1.24825 3.7915 2.94199C2.07061 4.63572 1.89468 7.19312 3.16396 9.14596C4.69469 11.497 6.82924 13.2771 8.81634 15.1916C10.2045 16.5303 11.7685 17.6051 13.5654 18.3776C15.3671 19.1501 17.088 20.1241 19.0228 21.0981L19.0323 21.1029Z" fill="#FFC8DD"/>
</svg>
